Normalized EMG Linear Envelopes
nRows=250
nColumns=4

endheader
time	 med_gas_r	  soleus_r	 tib_ant_r	
2.76091	  0.129614	  0.090389	  0.029890	
2.79418	  0.136118	  0.087967	  0.029531	
2.82744	  0.139566	  0.085994	  0.029304	
2.8607	  0.138986	  0.084722	  0.029322	
2.89397	  0.135702	  0.084279	  0.029629	
2.92723	  0.131900	  0.084733	  0.030194	
2.9605	  0.128648	  0.085967	  0.030875	
2.99376	  0.125531	  0.087571	  0.031463	
3.02702	  0.122237	  0.088909	  0.031768	
3.06029	  0.119821	  0.089560	  0.031726	
3.09355	  0.119435	  0.089459	  0.031315	
3.12682	  0.121371	  0.088803	  0.030725	
3.16008	  0.124925	  0.087973	  0.030187	
3.19334	  0.129029	  0.087185	  0.029844	
3.22661	  0.131474	  0.086366	  0.029685	
3.25987	  0.131528	  0.085590	  0.029637	
3.29314	  0.130791	  0.085066	  0.029639	
3.3264	  0.130340	  0.085103	  0.029690	
3.35966	  0.131009	  0.085831	  0.029887	
3.39293	  0.132530	  0.086894	  0.030296	
3.42619	  0.134228	  0.088021	  0.030847	
3.45946	  0.135907	  0.089234	  0.031373	
3.49272	  0.136306	  0.090393	  0.031770	
3.52598	  0.135056	  0.091203	  0.031879	
3.55925	  0.132605	  0.091661	  0.031701	
3.59251	  0.129988	  0.091789	  0.031358	
3.62578	  0.128020	  0.091580	  0.030998	
3.65904	  0.127208	  0.090939	  0.030615	
3.6923	  0.127342	  0.089848	  0.030156	
3.72557	  0.126309	  0.088593	  0.029595	
3.75883	  0.121881	  0.087614	  0.029020	
3.7921	  0.115442	  0.087247	  0.028555	
3.82536	  0.109084	  0.087479	  0.028250	
3.85862	  0.104107	  0.088238	  0.028051	
3.89189	  0.101200	  0.089545	  0.027862	
3.92515	  0.100718	  0.091251	  0.027729	
3.95842	  0.101858	  0.093014	  0.027813	
3.99168	  0.103220	  0.094618	  0.028117	
4.02494	  0.104810	  0.095889	  0.028527	
4.05821	  0.107361	  0.096604	  0.028948	
4.09147	  0.111387	  0.096491	  0.029239	
4.12474	  0.116346	  0.095655	  0.029325	
4.158	  0.120620	  0.094293	  0.029184	
4.19126	  0.124122	  0.092634	  0.028797	
4.22453	  0.127438	  0.090865	  0.028122	
4.25779	  0.130272	  0.089002	  0.027148	
4.29106	  0.131903	  0.087131	  0.025963	
4.32432	  0.131873	  0.085072	  0.024736	
4.35758	  0.130766	  0.082797	  0.023625	
4.39085	  0.129567	  0.080587	  0.022850	
4.42411	  0.129973	  0.078677	  0.022715	
4.45738	  0.132202	  0.077269	  0.023493	
4.49064	  0.136239	  0.076693	  0.025531	
4.5239	  0.140701	  0.077286	  0.029464	
4.55717	  0.142998	  0.079188	  0.036205	
4.59043	  0.141832	  0.082426	  0.046659	
4.6237	  0.138337	  0.086827	  0.061454	
4.65696	  0.134774	  0.091970	  0.080734	
4.69022	  0.133062	  0.097654	  0.104096	
4.72349	  0.133557	  0.103658	  0.130390	
4.75675	  0.135817	  0.109988	  0.158291	
4.79002	  0.138585	  0.117139	  0.187884	
4.82328	  0.142358	  0.125669	  0.220382	
4.85654	  0.147256	  0.135778	  0.255027	
4.88981	  0.151817	  0.146610	  0.288612	
4.92307	  0.156359	  0.157131	  0.316640	
4.95634	  0.161807	  0.165842	  0.335552	
4.9896	  0.167096	  0.171971	  0.346389	
5.02286	  0.170827	  0.176096	  0.353336	
5.05613	  0.173595	  0.179162	  0.360210	
5.08939	  0.176279	  0.181865	  0.369142	
5.12266	  0.177697	  0.184672	  0.380816	
5.15592	  0.176701	  0.187880	  0.393541	
5.18918	  0.175537	  0.191036	  0.403491	
5.22245	  0.175916	  0.193600	  0.408347	
5.25571	  0.177677	  0.194883	  0.407975	
5.28898	  0.179482	  0.194292	  0.404827	
5.32224	  0.180145	  0.192390	  0.399130	
5.3555	  0.178604	  0.190287	  0.390518	
5.38877	  0.176830	  0.188159	  0.379765	
5.42203	  0.178365	  0.185970	  0.368234	
5.4553	  0.185423	  0.184212	  0.356797	
5.48856	  0.197682	  0.183146	  0.346711	
5.52182	  0.212172	  0.182375	  0.338155	
5.55509	  0.224811	  0.181382	  0.329877	
5.58835	  0.233686	  0.179616	  0.319895	
5.62162	  0.239634	  0.177368	  0.308422	
5.65488	  0.243504	  0.175598	  0.296194	
5.68814	  0.245719	  0.174737	  0.283196	
5.72141	  0.246078	  0.174894	  0.270133	
5.75467	  0.243028	  0.176579	  0.258797	
5.78794	  0.235809	  0.179251	  0.250452	
5.8212	  0.226967	  0.182847	  0.245576	
5.85446	  0.218973	  0.187771	  0.244189	
5.88773	  0.213409	  0.193483	  0.245368	
5.92099	  0.210124	  0.198808	  0.248760	
5.95426	  0.208080	  0.203758	  0.254770	
5.98752	  0.206768	  0.208538	  0.262060	
6.02078	  0.205824	  0.212641	  0.268944	
6.05405	  0.206915	  0.215521	  0.274475	
6.08731	  0.212658	  0.217059	  0.278284	
6.12058	  0.224425	  0.217220	  0.279826	
6.15384	  0.241118	  0.215102	  0.281148	
6.1871	  0.261025	  0.210867	  0.284320	
6.22037	  0.282437	  0.206478	  0.289695	
6.25363	  0.301940	  0.203421	  0.298190	
6.2869	  0.319733	  0.202751	  0.310521	
6.32016	  0.337463	  0.204864	  0.325449	
6.35342	  0.352899	  0.209932	  0.340877	
6.38669	  0.362602	  0.217300	  0.355815	
6.41995	  0.365339	  0.226563	  0.370796	
6.45322	  0.360553	  0.236755	  0.387225	
6.48648	  0.351199	  0.246360	  0.406557	
6.51974	  0.339905	  0.254530	  0.429941	
6.55301	  0.327073	  0.261216	  0.457154	
6.58627	  0.313343	  0.265788	  0.486184	
6.61954	  0.299668	  0.267016	  0.515840	
6.6528	  0.287819	  0.266140	  0.541414	
6.68606	  0.279209	  0.265125	  0.554941	
6.71933	  0.276287	  0.265050	  0.555035	
6.75259	  0.278917	  0.265888	  0.546577	
6.78586	  0.283362	  0.266648	  0.533045	
6.81912	  0.286355	  0.267513	  0.517268	
6.85238	  0.287007	  0.268657	  0.499649	
6.88565	  0.286726	  0.268809	  0.478663	
6.91891	  0.285381	  0.266276	  0.453938	
6.95218	  0.282819	  0.261075	  0.426362	
6.98544	  0.279418	  0.254119	  0.399087	
7.0187	  0.275419	  0.246219	  0.374687	
7.05197	  0.272254	  0.238394	  0.355077	
7.08523	  0.270331	  0.231274	  0.340205	
7.1185	  0.269598	  0.225378	  0.328505	
7.15176	  0.271666	  0.220829	  0.319149	
7.18502	  0.277891	  0.217307	  0.311516	
7.21829	  0.285698	  0.214747	  0.304717	
7.25155	  0.291336	  0.213371	  0.298651	
7.28482	  0.293864	  0.212113	  0.293631	
7.31808	  0.294164	  0.211071	  0.290348	
7.35134	  0.295448	  0.211188	  0.289998	
7.38461	  0.300238	  0.212491	  0.293670	
7.41787	  0.307113	  0.215217	  0.300632	
7.45114	  0.312958	  0.219401	  0.309522	
7.4844	  0.318050	  0.224883	  0.321503	
7.51766	  0.322372	  0.232211	  0.337977	
7.55093	  0.324751	  0.240827	  0.357085	
7.58419	  0.322757	  0.249111	  0.375149	
7.61746	  0.316921	  0.254904	  0.390306	
7.65072	  0.310046	  0.256630	  0.399480	
7.68398	  0.303107	  0.254580	  0.403780	
7.71725	  0.295851	  0.250150	  0.406328	
7.75051	  0.289602	  0.243942	  0.408074	
7.78378	  0.286531	  0.237545	  0.411267	
7.81704	  0.288162	  0.233321	  0.418268	
7.8503	  0.293947	  0.231787	  0.427578	
7.88357	  0.302321	  0.232270	  0.436629	
7.91683	  0.310683	  0.234013	  0.444257	
7.9501	  0.317767	  0.236014	  0.450808	
7.98336	  0.324652	  0.238481	  0.456394	
8.01662	  0.331494	  0.241175	  0.460027	
8.04989	  0.337659	  0.243258	  0.462501	
8.08315	  0.341773	  0.244166	  0.464013	
8.11642	  0.343615	  0.243629	  0.461007	
8.14968	  0.344179	  0.242301	  0.452107	
8.18294	  0.344097	  0.241630	  0.440810	
8.21621	  0.342935	  0.242982	  0.430206	
8.24947	  0.339930	  0.246310	  0.420511	
8.28274	  0.335875	  0.250898	  0.413237	
8.316	  0.332303	  0.257097	  0.411028	
8.34926	  0.330517	  0.264775	  0.413346	
8.38253	  0.330814	  0.272478	  0.418911	
8.41579	  0.331652	  0.278626	  0.425932	
8.44906	  0.333597	  0.282254	  0.432271	
8.48232	  0.337250	  0.282208	  0.437091	
8.51558	  0.341647	  0.276792	  0.438866	
8.54885	  0.345687	  0.267575	  0.435678	
8.58211	  0.348944	  0.257607	  0.429785	
8.61538	  0.350812	  0.248832	  0.424323	
8.64864	  0.351931	  0.243783	  0.420511	
8.6819	  0.353069	  0.243049	  0.417200	
8.71517	  0.353710	  0.245194	  0.413414	
8.74843	  0.353605	  0.249642	  0.409253	
8.7817	  0.353311	  0.255609	  0.404861	
8.81496	  0.354250	  0.261564	  0.399157	
8.84822	  0.355933	  0.267049	  0.391476	
8.88149	  0.356515	  0.272546	  0.383202	
8.91475	  0.354882	  0.278461	  0.376449	
8.94802	  0.351273	  0.284999	  0.374036	
8.98128	  0.347789	  0.292387	  0.375849	
9.01454	  0.344830	  0.299542	  0.378898	
9.04781	  0.341623	  0.306553	  0.381497	
9.08107	  0.337723	  0.314879	  0.384224	
9.11434	  0.333059	  0.323811	  0.388423	
9.1476	  0.327371	  0.330799	  0.395824	
9.18086	  0.321978	  0.333029	  0.408099	
9.21413	  0.317269	  0.328965	  0.424365	
9.24739	  0.311968	  0.320746	  0.441710	
9.28066	  0.306273	  0.309237	  0.458843	
9.31392	  0.302296	  0.294884	  0.474816	
9.34718	  0.300881	  0.280554	  0.486456	
9.38045	  0.301183	  0.269030	  0.491604	
9.41371	  0.302917	  0.262188	  0.494400	
9.44698	  0.306726	  0.260555	  0.496419	
9.48024	  0.312416	  0.262729	  0.495793	
9.5135	  0.318808	  0.266886	  0.489652	
9.54677	  0.325995	  0.272294	  0.478875	
9.58003	  0.333348	  0.278392	  0.467182	
9.6133	  0.340541	  0.285763	  0.457926	
9.64656	  0.348718	  0.294382	  0.453031	
9.67982	  0.358272	  0.302877	  0.452961	
9.71309	  0.365976	  0.309750	  0.455981	
9.74635	  0.370713	  0.315533	  0.456801	
9.77962	  0.373412	  0.321421	  0.451638	
9.81288	  0.374438	  0.325989	  0.439168	
9.84614	  0.373161	  0.325446	  0.417944	
9.87941	  0.367955	  0.316961	  0.387501	
9.91267	  0.359123	  0.300293	  0.347880	
9.94594	  0.347448	  0.276553	  0.301649	
9.9792	  0.335195	  0.247595	  0.254004	
10.0125	  0.324514	  0.216484	  0.209347	
10.0457	  0.317228	  0.185717	  0.170162	
10.079	  0.312645	  0.157745	  0.136730	
10.1123	  0.309271	  0.134927	  0.108654	
10.1455	  0.305009	  0.118606	  0.086287	
10.1788	  0.297289	  0.108828	  0.069854	
10.212	  0.286790	  0.104692	  0.059060	
10.2453	  0.277809	  0.104814	  0.052979	
10.2786	  0.272479	  0.107480	  0.050138	
10.3118	  0.269813	  0.111094	  0.049264	
10.3451	  0.267243	  0.114682	  0.049610	
10.3784	  0.265075	  0.117546	  0.050784	
10.4116	  0.264623	  0.119216	  0.052227	
10.4449	  0.266775	  0.119550	  0.053326	
10.4782	  0.270133	  0.118351	  0.053796	
10.5114	  0.273340	  0.115550	  0.053580	
10.5447	  0.276012	  0.111443	  0.052807	
10.578	  0.278001	  0.106420	  0.051621	
10.6112	  0.279025	  0.101479	  0.050043	
10.6445	  0.279163	  0.097620	  0.047924	
10.6777	  0.277769	  0.095334	  0.045293	
10.711	  0.273001	  0.094854	  0.042542	
10.7443	  0.266088	  0.096162	  0.040079	
10.7775	  0.260872	  0.098983	  0.038107	
10.8108	  0.258537	  0.102738	  0.036748	
10.8441	  0.257460	  0.106557	  0.035967	
10.8773	  0.254821	  0.109291	  0.035554	
10.9106	  0.251192	  0.110164	  0.035283	
10.9439	  0.247630	  0.109532	  0.035127	
10.9771	  0.243702	  0.108096	  0.035148	
11.0104	  0.238728	  0.106156	  0.035302	
11.0436	  0.232525	  0.103799	  0.035498	
